# xmcd
#
# Track frame offsets:
#	150
#	15151
#	34672
#	55667
#	71372
#	89165
#	111309
#	130950
#	147958
#	162655
#	180680
#	188901
#	202689
#
# Disc length: 2771 seconds
#
# Revision: 1
# Processed by: cddbd v1.5.2PL0 Copyright (c) Steve Scherf et al.
# Submitted via: audiograbber 1.83.01
#
DISCID=b10ad10d
DTITLE=Slime - Sich Fügen Heißt Lügen
DYEAR=2012
DGENRE=Punk Rock
TTITLE0=Sich fügen heißt lügen
TTITLE1=Rebellen
TTITLE2=Freiheit in Ketten
TTITLE3=Wir geben nicht nach
TTITLE4=Seenot
TTITLE5=Bürgers Alptraum
TTITLE6=Bett aus Lehm und Jauche
TTITLE7=Revoluzzer
TTITLE8=Trinklied
TTITLE9=Zum Kampf
TTITLE10=Bauchweh
TTITLE11=Lumpen
TTITLE12=Das Beil
EXTD=
EXTT0=
EXTT1=
EXTT2=
EXTT3=
EXTT4=
EXTT5=
EXTT6=
EXTT7=
EXTT8=
EXTT9=
EXTT10=
EXTT11=
EXTT12=
PLAYORDER=
